<?xml version="1.0" standalone="no"?>
<!DOCTYPE svg PUBLIC "-//W3C//DTD SVG 20010904//EN"
 "http://www.w3.org/TR/2001/REC-SVG-20010904/DTD/svg10.dtd">
<svg version="1.0" xmlns="http://www.w3.org/2000/svg"
 width="553.000000pt" height="552.000000pt" viewBox="0 0 553.000000 552.000000"
 preserveAspectRatio="xMidYMid meet">

<g transform="translate(0.000000,552.000000) scale(0.100000,-0.100000)"
fill="#000000" stroke="none">
<path d="M2575 5465 c-414 -47 -712 -128 -1020 -280 -168 -83 -426 -237 -436
-261 -2 -5 -33 -32 -69 -61 -36 -28 -99 -86 -140 -129 -41 -42 -94 -95 -117
-118 -273 -268 -483 -617 -624 -1038 -89 -266 -119 -448 -126 -753 -9 -405 37
-691 166 -1030 191 -500 486 -891 916 -1215 72 -54 164 -119 204 -146 98 -62
336 -180 484 -238 180 -71 486 -145 687 -166 119 -12 476 -13 498 -1 21 11 72
18 222 31 138 11 268 42 455 108 184 65 263 99 424 183 346 182 625 428 901
794 185 245 336 560 424 885 80 296 101 469 93 764 -13 450 -88 765 -277 1151
-200 411 -470 729 -860 1016 -339 250 -613 372 -1040 465 -220 47 -542 64
-765 39z m524 -41 c257 -30 494 -84 656 -150 373 -153 768 -432 1062 -751 230
-250 499 -751 588 -1094 27 -104 85 -538 85 -639 0 -247 -43 -551 -114 -795
-68 -238 -223 -580 -333 -733 -183 -258 -376 -462 -628 -668 -307 -250 -824
-459 -1245 -504 -349 -36 -411 -41 -520 -35 -380 21 -705 107 -1055 279 -258
127 -471 278 -741 525 -105 96 -150 146 -227 253 -122 170 -181 266 -255 414
-73 146 -182 418 -217 539 -93 325 -105 850 -29 1225 56 269 231 696 374 907
171 254 401 509 590 653 268 204 494 328 772 425 129 45 149 44 33 -1 -110
-43 -441 -203 -510 -247 -521 -329 -903 -790 -1115 -1345 -118 -310 -157 -512
-167 -857 -9 -337 30 -592 143 -938 51 -157 91 -246 179 -403 143 -254 245
-392 434 -587 150 -155 257 -244 439 -365 310 -205 639 -342 988 -412 144 -29
528 -46 699 -30 349 31 632 99 872 210 198 92 428 235 620 387 101 80 312 293
405 408 285 356 462 762 544 1249 82 489 10 1012 -210 1514 -169 387 -466 749
-851 1038 -344 259 -786 438 -1245 504 -135 19 -183 22 -380 18 -164 -4 -263
-11 -364 -27 -76 -12 -140 -20 -143 -18 -11 12 342 61 497 70 84 4 231 -3 369
-19z m21 -189 c398 -61 731 -188 1050 -400 619 -412 1029 -1083 1110 -1814 14
-124 14 -410 0 -536 -54 -483 -242 -935 -546 -1310 -83 -103 -273 -292 -384
-381 -375 -303 -894 -511 -1352 -541 l-101 -6 6 94 c4 52 9 198 13 324 3 127
10 239 15 250 5 11 10 56 11 100 l3 80 105 53 c216 110 305 184 548 452 233
257 294 348 307 453 6 45 0 72 -44 209 -49 153 -80 293 -82 367 0 33 -27 146
-43 182 -5 10 17 48 68 117 114 156 166 259 186 363 18 95 -39 208 -127 249
-26 13 -49 24 -51 26 -2 1 9 21 24 43 46 70 64 158 64 311 0 125 -2 140 -25
187 -14 28 -33 57 -43 66 -16 15 -17 13 -14 -29 4 -49 -7 -56 -42 -26 -20 17
-20 17 -4 -8 20 -32 49 -32 64 -1 l12 23 19 -28 c15 -24 18 -48 17 -164 -1
-146 -17 -233 -57 -303 -34 -61 -44 -64 -133 -38 -44 13 -87 25 -97 28 -21 6
-56 76 -57 111 l0 23 33 -22 32 -23 -33 38 c-24 27 -32 45 -28 60 3 11 6 35 6
52 0 16 6 39 14 49 13 18 15 18 46 -8 17 -15 39 -27 48 -27 11 0 5 7 -15 20
-121 74 -153 307 -53 395 17 15 36 20 77 19 58 0 65 -5 116 -74 17 -24 17 -24
0 8 -29 55 -78 92 -121 92 -20 -1 -48 -7 -61 -14 -24 -13 -25 -12 -56 53 -59
122 -180 255 -295 325 l-45 28 34 -33 34 -33 -6 -125 c-4 -108 -14 -163 -66
-386 -69 -289 -117 -476 -133 -510 -7 -17 -24 -26 -62 -33 -50 -10 -54 -9
-156 38 -58 26 -134 57 -170 68 -121 37 -413 92 -426 80 -8 -9 -34 -111 -29
-116 2 -3 48 -9 102 -14 137 -12 363 -77 484 -138 45 -23 45 -26 20 -60 l-19
-24 -119 37 c-65 21 -185 53 -268 72 -82 19 -165 39 -184 44 -19 6 -37 8 -42
6 -11 -7 -32 -113 -26 -129 3 -8 32 -16 72 -21 226 -24 532 -136 651 -238 l26
-23 -21 -78 c-28 -103 -83 -221 -107 -230 -131 -54 -288 -82 -398 -74 -93 8
-155 41 -300 163 -155 130 -174 162 -183 303 -10 153 11 202 87 202 39 0 39 1
54 51 9 28 13 56 9 61 -3 6 -28 8 -60 5 l-55 -6 7 27 c10 39 24 52 55 52 62 0
88 11 93 40 4 15 9 40 13 55 l7 27 -54 -3 c-56 -4 -59 -2 -59 30 0 31 25 48
79 56 60 8 73 22 69 72 -3 35 -5 38 -33 38 -16 -1 -40 -4 -52 -9 -20 -6 -23
-4 -23 18 0 25 41 66 66 66 30 0 67 26 85 62 34 67 29 74 -48 59 -47 -9 -52
-2 -32 43 9 20 24 28 66 36 49 11 56 16 69 47 27 64 17 73 -62 58 -36 -6 -36
-6 -29 22 10 42 21 51 81 64 50 11 55 15 63 48 21 78 22 76 -36 74 -29 -1 -53
0 -53 3 0 2 16 36 35 74 37 73 60 100 49 56 -11 -45 12 -29 65 44 28 38 65 77
83 86 l33 17 -36 -40 c-47 -52 -67 -109 -47 -130 25 -24 59 1 112 84 58 90 86
105 184 101 l67 -3 -60 -18 c-119 -37 -179 -84 -173 -136 2 -21 9 -27 35 -29
28 -3 36 3 62 38 17 23 33 51 36 61 10 30 77 59 137 59 54 0 207 -32 237 -50
11 -6 -24 -9 -107 -10 -93 0 -131 -4 -155 -16 -76 -39 -88 -76 -33 -99 40 -17
55 -13 116 30 93 67 163 85 241 65 24 -6 53 -13 64 -16 44 -10 -106 61 -184
87 -174 59 -325 74 -463 45 -148 -32 -233 -99 -295 -232 -35 -77 -42 -114 -30
-150 6 -16 1 -30 -17 -50 -30 -37 -46 -92 -39 -143 4 -32 2 -41 -15 -50 -27
-14 -46 -74 -38 -120 4 -29 0 -44 -25 -80 -24 -37 -29 -54 -28 -96 2 -40 -4
-62 -26 -99 -23 -40 -27 -54 -21 -95 5 -40 3 -52 -16 -77 -19 -23 -23 -41 -23
-99 0 -55 -5 -81 -25 -120 -23 -45 -25 -62 -25 -171 l0 -121 38 -61 c36 -58
37 -63 24 -89 -8 -16 -17 -75 -21 -138 -3 -60 -14 -188 -23 -283 -14 -148 -15
-192 -5 -300 12 -120 11 -131 -9 -197 -11 -38 -31 -109 -44 -157 -47 -177 -67
-201 -450 -529 -372 -319 -447 -380 -459 -376 -6 2 -51 50 -99 108 -303 359
-489 783 -563 1279 -21 140 -24 461 -6 600 77 583 316 1077 716 1476 218 217
406 353 667 483 289 144 579 227 909 260 128 13 421 5 550 -14z m216 -655 c9
0 12 5 8 12 -4 6 4 3 18 -8 15 -10 32 -28 39 -39 11 -18 10 -18 -3 -7 -13 10
-17 10 -22 -3 -7 -20 12 -62 32 -70 25 -9 39 12 23 38 -14 21 -13 22 6 4 29
-26 71 -107 78 -153 8 -47 -10 -153 -28 -171 -11 -11 -25 -4 -78 37 -70 54
-93 61 -109 30 -18 -33 -4 -55 77 -115 42 -32 93 -74 115 -93 37 -33 39 -38
32 -76 -11 -69 -17 -72 -53 -27 -17 22 -59 61 -93 86 -71 53 -107 57 -122 13
-12 -35 -4 -44 111 -130 51 -38 100 -82 108 -98 14 -26 21 -100 10 -100 -2 0
-44 32 -92 71 -84 67 -150 109 -173 109 -14 0 -32 -49 -25 -70 3 -10 32 -36
64 -59 32 -22 77 -56 99 -75 l41 -33 -54 -7 c-44 -5 -62 -2 -107 19 -29 14
-59 25 -66 25 -7 0 -20 -16 -28 -35 -13 -32 -32 -44 -46 -29 -3 3 33 154 80
337 102 398 122 486 122 552 0 57 12 111 18 83 2 -10 10 -18 18 -18z m455
-1037 c117 -57 161 -98 179 -164 25 -93 -46 -269 -179 -444 -25 -32 -51 -66
-57 -74 -10 -13 -19 -8 -58 35 -25 28 -74 70 -109 93 -68 44 -91 74 -85 112 3
22 9 25 77 32 97 11 126 26 50 27 -31 0 -91 9 -135 20 -115 29 -113 28 -84 50
23 18 21 18 -45 -1 -59 -17 -91 -20 -200 -16 -141 5 -189 18 -238 65 -45 43
-60 78 -52 128 7 52 25 68 25 24 0 -44 23 -93 55 -118 53 -42 198 -26 258 28
28 25 32 35 32 78 0 36 -6 59 -21 79 -35 47 -60 55 -149 48 -43 -3 -76 -3 -73
1 4 3 46 16 95 29 82 21 105 23 348 21 l261 -2 105 -51z m-643 -19 c50 -14 70
-119 32 -167 -26 -33 -74 -49 -155 -50 -54 -2 -67 1 -89 22 -52 49 -57 143 -9
181 21 17 41 20 112 20 47 0 96 -3 109 -6z m-25 -378 c70 -31 129 -82 125
-110 -2 -13 -17 -27 -38 -37 -43 -20 -329 -93 -336 -86 -8 8 95 207 121 233
30 30 60 30 128 0z m-1085 -157 c74 -50 142 -120 142 -146 0 -13 -8 -36 -17
-51 l-18 -27 37 29 37 28 7 -27 c12 -50 -2 -158 -31 -225 -51 -120 -30 -213
66 -292 37 -31 41 -38 34 -66 -5 -25 -12 -32 -31 -32 -35 0 -81 -74 -64 -105
9 -16 9 -68 1 -211 -5 -104 -15 -301 -21 -439 -9 -191 -15 -258 -27 -283 -13
-25 -14 -35 -5 -44 8 -8 12 -48 12 -110 l0 -98 40 -16 c30 -12 40 -22 40 -39
0 -12 9 -34 20 -48 18 -22 20 -40 20 -159 l0 -133 -80 -80 -80 -79 -68 17
c-313 81 -711 307 -967 549 l-85 80 78 72 c42 40 163 149 267 241 105 93 254
233 332 312 131 131 145 143 170 137 17 -4 68 -48 128 -109 129 -131 163 -155
60 -42 -123 134 -179 253 -154 325 12 35 52 57 79 42 10 -5 37 -45 60 -87 23
-43 48 -85 56 -93 8 -8 -7 28 -35 80 -27 52 -58 125 -69 161 -29 96 -46 289
-38 449 3 74 10 219 15 321 8 164 18 229 37 229 3 0 26 -14 52 -31z m1520 -54
c76 -34 144 -105 166 -173 9 -26 25 -109 36 -184 12 -76 32 -179 45 -230 14
-51 25 -97 25 -102 0 -12 -41 16 -145 100 -49 39 -132 95 -183 124 -51 29 -95
56 -97 60 -3 5 8 11 25 15 16 4 33 11 36 17 5 7 -2 9 -19 4 -72 -18 -225 -26
-302 -15 -43 6 -82 12 -86 15 -3 2 -61 -17 -128 -42 -216 -79 -360 -102 -406
-64 -14 11 -6 16 56 36 115 36 157 95 130 185 -20 65 -72 84 -164 58 -22 -6
-41 -8 -44 -6 -6 6 302 110 437 148 86 24 220 53 380 83 67 12 176 -1 238 -29z
m-1204 -167 c11 -15 16 -45 16 -85 0 -60 -1 -63 -25 -63 -20 0 -26 -7 -35 -42
-27 -103 -34 -124 -46 -137 -10 -11 -14 -8 -19 23 -9 47 1 111 32 211 39 123
48 135 77 93z m318 -55 c22 -20 25 -101 3 -142 -26 -50 -166 -96 -209 -67 -43
28 -73 135 -48 172 12 18 51 35 115 49 70 16 112 12 139 -12z m-447 -243 c0
-116 -10 -136 -32 -60 -9 31 -10 55 -2 88 8 39 25 82 32 82 1 0 2 -49 2 -110z
m125 55 c-39 -77 -20 -205 30 -205 14 0 20 10 25 43 21 139 30 124 30 -50 l0
-138 -36 -3 c-19 -2 -47 2 -62 7 l-27 11 0 132 c0 136 7 182 35 225 25 37 28
22 5 -22z m41 -94 c-5 -40 -12 -76 -16 -79 -22 -23 -34 102 -15 154 10 24 13
26 25 13 12 -12 13 -28 6 -88z m1037 -7 c152 -30 393 -177 428 -259 32 -79 10
-164 -79 -297 -67 -101 -218 -278 -318 -373 -80 -77 -260 -225 -324 -268 -69
-47 -143 -29 -180 42 -18 36 -45 220 -46 318 -1 47 7 112 19 163 11 47 23 101
26 121 5 29 21 49 78 100 63 56 76 63 111 63 55 -2 112 -46 159 -124 43 -71
77 -110 123 -143 24 -18 21 -11 -17 34 -47 55 -108 169 -108 202 0 31 31 18
93 -39 76 -71 125 -94 197 -93 l55 1 -60 12 c-66 13 -98 28 -132 59 -25 22
-31 56 -10 58 6 0 -3 7 -20 15 -39 17 -40 22 -10 34 16 6 -2 9 -64 9 -106 1
-194 16 -237 42 -26 15 -44 18 -85 13 -102 -12 -318 39 -370 86 l-32 29 66 -6
c106 -9 159 28 159 112 0 21 -9 44 -25 64 l-26 30 23 4 c13 2 137 5 276 6 194
1 271 -3 330 -15z m-923 0 c17 -4 20 -13 20 -64 0 -32 -4 -62 -9 -67 -4 -4 -7
-3 -6 2 1 6 2 24 0 40 -1 26 -3 27 -10 10 -5 -11 -9 -14 -9 -6 -1 11 -4 11
-16 1 -13 -11 -15 -6 -15 39 0 52 4 56 45 45z m290 -28 c47 -47 45 -115 -5
-141 -34 -18 -114 -20 -159 -4 -44 16 -66 59 -51 105 15 45 51 63 128 64 53 0
67 -4 87 -24z m-227 -138 c33 -33 -6 -53 -44 -22 -18 15 -18 15 4 10 18 -3 22
-1 18 10 -7 17 6 18 22 2z m-148 -118 c139 -21 254 -50 322 -79 l44 -19 32
-228 c18 -126 44 -274 57 -329 40 -165 45 -211 45 -381 0 -145 -2 -164 -17
-172 -30 -16 -303 -70 -415 -83 -117 -13 -155 -8 -252 35 l-54 24 -4 84 c-2
45 -3 84 -2 86 1 2 49 -7 106 -19 l105 -22 116 83 117 82 0 413 0 412 -195 47
c-107 26 -195 49 -195 51 0 2 3 10 6 19 8 21 32 20 184 -4z m108 -111 c26 -7
53 -16 60 -22 14 -11 17 -425 6 -669 l-7 -135 -83 -57 c-45 -31 -87 -56 -93
-56 -14 0 -14 10 4 335 9 149 18 342 21 430 3 88 7 166 10 173 4 15 22 15 82
1z m-150 -51 l43 -11 -5 -51 c-3 -28 -13 -190 -21 -361 -20 -400 -22 -417 -43
-411 -9 3 -50 12 -90 21 l-72 17 5 136 c3 76 10 207 15 292 5 85 12 208 16
274 l7 118 51 -6 c28 -4 70 -12 94 -18z m515 -1139 c-2 -30 -8 -168 -14 -307
-12 -275 -12 -278 -21 -288 -4 -3 -67 -2 -142 2 l-136 7 0 258 c0 246 1 260
20 279 11 11 20 29 20 40 0 15 7 20 28 20 15 1 72 12 127 25 55 13 105 22 110
21 6 -2 9 -27 8 -57z m-541 -20 c31 -7 71 -7 123 0 98 14 105 14 105 -3 0 -29
-276 -38 -304 -10 -19 19 -11 38 12 29 10 -3 38 -11 64 -16z m197 -309 c1
-137 0 -250 -2 -250 -27 0 -223 33 -228 38 -4 4 -9 107 -12 229 l-5 222 97 4
c53 1 108 4 123 5 l26 2 1 -250z m-259 -146 c0 -33 -2 -63 -5 -66 -3 -3 -33 1
-65 9 l-59 15 57 64 c64 72 72 70 72 -22z"/>
<path d="M2466 4569 c-14 -40 -25 -93 -21 -99 2 -4 48 -10 102 -14 174 -11
314 -51 481 -135 91 -46 118 -46 128 -4 13 52 -6 75 -101 125 -108 57 -183 82
-325 108 -163 29 -259 36 -264 19z"/>
<path d="M2411 4359 c-4 -13 -12 -38 -15 -56 l-7 -31 58 -6 c141 -14 241 -29
302 -46 68 -19 284 -111 309 -133 11 -9 19 -6 38 16 48 56 33 76 -117 145
-167 79 -282 109 -481 127 -75 7 -78 7 -87 -16z"/>
<path d="M2350 4155 c-6 -19 -9 -44 -5 -55 7 -23 4 -22 185 -55 164 -30 318
-74 415 -120 40 -19 78 -35 84 -35 6 0 18 11 27 25 28 43 8 68 -103 124 -146
73 -261 110 -408 132 -180 26 -181 26 -195 -16z"/>
<path d="M2220 4103 c-54 -48 -58 -139 -8 -157 71 -25 143 109 88 164 -27 27
-44 25 -80 -7z m75 0 c38 -37 -8 -143 -61 -143 -49 0 -54 85 -8 135 27 29 46
32 69 8z"/>
<path d="M2314 3969 c-15 -19 -35 -80 -29 -89 3 -4 40 -11 82 -14 203 -18 345
-55 517 -136 64 -30 85 -35 103 -27 25 11 36 43 22 69 -12 21 -108 71 -234
121 -161 63 -436 108 -461 76z"/>
<path d="M2046 3358 c-30 -43 -12 -142 49 -264 25 -51 54 -89 100 -133 63 -59
157 -121 183 -121 28 0 8 28 -49 65 -85 56 -153 133 -179 203 -12 31 -27 101
-34 156 -12 90 -23 115 -48 116 -4 0 -14 -10 -22 -22z"/>
<path d="M1933 3354 c-13 -35 5 -142 36 -207 32 -68 122 -162 228 -237 74 -54
45 -19 -55 64 -124 104 -143 139 -150 264 -2 53 -9 105 -14 115 -11 21 -37 22
-45 1z"/>
<path d="M2182 3348 c-19 -19 -14 -129 8 -200 34 -112 126 -214 253 -282 49
-27 87 -30 87 -8 0 5 -32 30 -70 56 -136 93 -190 184 -198 331 -4 83 -19 115
-52 115 -9 0 -21 -5 -28 -12z"/>
<path d="M2367 3328 c-24 -13 -22 -109 4 -194 18 -62 28 -76 93 -139 40 -39
91 -83 114 -98 38 -27 43 -28 81 -16 23 7 41 15 41 19 0 4 -25 24 -55 45 -95
65 -136 129 -158 248 -8 42 -22 88 -30 101 -20 29 -67 47 -90 34z"/>
<path d="M3047 2767 c9 -31 18 -55 21 -52 8 7 -8 71 -22 91 -12 15 -12 8 1
-39z"/>
<path d="M3613 2755 c0 -27 2 -38 4 -22 2 15 2 37 0 50 -2 12 -4 0 -4 -28z"/>
<path d="M2971 2744 c0 -11 3 -14 6 -6 3 7 2 16 -1 19 -3 4 -6 -2 -5 -13z"/>
<path d="M3151 2314 c-1 -28 -4 -67 -7 -85 -4 -27 -3 -30 5 -17 17 25 24 100
12 128 -8 22 -10 19 -10 -26z"/>
<path d="M3097 2274 c-3 -32 -9 -70 -12 -84 l-6 -25 14 25 c20 35 29 93 19
121 -7 19 -10 12 -15 -37z"/>
<path d="M3581 2234 c-1 -12 -13 -43 -27 -70 l-26 -49 26 24 c26 24 43 78 33
103 -3 7 -6 4 -6 -8z"/>
<path d="M3435 1860 c18 -19 111 -63 124 -58 4 2 -25 19 -66 40 -49 24 -69 30
-58 18z"/>
<path d="M2300 1885 c-19 -23 -8 -50 22 -53 19 -2 28 2 33 18 12 39 -29 66
-55 35z m36 -34 c-22 -21 -46 0 -26 24 10 12 16 13 27 3 12 -10 12 -13 -1 -27z"/>
<path d="M2277 1704 c-4 -4 -7 -31 -7 -61 0 -40 -4 -53 -15 -53 -36 0 -50 -98
-15 -107 11 -3 20 -9 20 -13 0 -9 80 -33 87 -26 9 9 25 238 16 246 -12 12 -77
23 -86 14z"/>
<path d="M2266 1304 c-19 -19 -20 -25 -3 -48 10 -13 20 -16 35 -12 37 12 26
76 -13 76 -2 0 -11 -7 -19 -16z m42 -21 c-5 -26 -38 -29 -38 -4 0 15 6 21 21
21 14 0 19 -5 17 -17z"/>
<path d="M2377 732 c-21 -4 -19 -37 3 -38 17 0 40 15 40 26 0 11 -22 17 -43
12z"/>
<path d="M2324 675 c-6 -31 1 -74 10 -64 2 2 7 25 10 52 8 55 -10 66 -20 12z"/>
</g>
</svg>
